<?xml version="1.0" encoding="UTF-8"?>
<svg id="Capa_1" data-name="Capa 1" xmlns="http://www.w3.org/2000/svg" viewBox="0 0 571.28452 200.29449">
  <defs>
    <style>
      .cls-1 {
        fill: #6258b1;
      }

      .cls-1, .cls-2 {
        stroke-width: 0px;
      }

      .cls-2 {
        fill: #312265;
      }
    </style>
  </defs>
  <path class="cls-2" d="m357.91552,83.94039c4.45137,0,8.63588,1.11407,12.55353,3.33976,3.91642,2.22569,6.97398,5.24643,9.17083,9.06225,2.19685,3.81581,3.29559,7.93591,3.29559,12.35906,0,4.45137-1.10548,8.61441-3.31706,12.48789-2.21158,3.87471-5.22496,6.90282-9.04139,9.08433-3.81581,2.18274-8.02179,3.27473-12.61856,3.27473-6.76417,0-12.53881-2.40727-17.32329-7.2206-4.78449-4.81332-7.17643-10.65973-7.17643-17.54046,0-7.37151,2.70297-13.51362,8.10891-18.42878,4.74093-4.27837,10.19043-6.41817,16.34787-6.41817Zm.19508,11.14438c-3.67778,0-6.74024,1.27971-9.18678,3.8379-2.44715,2.55819-3.67042,5.83292-3.67042,9.82173,0,4.10537,1.20854,7.4304,3.62686,9.97387,2.4177,2.54347,5.48017,3.81581,9.18678,3.81581,3.706,0,6.79055-1.28584,9.25181-3.85998,2.46126-2.57169,3.69189-5.88199,3.69189-9.9297,0-4.04648-1.20916-7.3347-3.62686-9.86467-2.4177-2.52997-5.509-3.79495-9.27328-3.79495Z"/>
  <path class="cls-2" d="m414.76376,83.94039c4.45137,0,8.63649,1.11407,12.55414,3.33976,3.91642,2.22569,6.97398,5.24643,9.17022,9.06225,2.19747,3.81581,3.29559,7.93591,3.29559,12.35906,0,4.45137-1.10548,8.61441-3.31644,12.48789-2.21219,3.87471-5.22558,6.90282-9.04139,9.08433-3.81581,2.18274-8.02241,3.27473-12.61917,3.27473-6.76417,0-12.53881-2.40727-17.32329-7.2206-4.78449-4.81332-7.17643-10.65973-7.17643-17.54046,0-7.37151,2.70297-13.51362,8.10891-18.42878,4.74093-4.27837,10.19043-6.41817,16.34787-6.41817Zm.19508,11.14438c-3.67778,0-6.74024,1.27971-9.18678,3.8379-2.44715,2.55819-3.67042,5.83292-3.67042,9.82173,0,4.10537,1.20854,7.4304,3.62686,9.97387,2.4177,2.54347,5.48017,3.81581,9.18678,3.81581,3.706,0,6.79055-1.28584,9.25181-3.85998,2.46126-2.57169,3.69189-5.88199,3.69189-9.9297,0-4.04648-1.20854-7.3347-3.62686-9.86467-2.4177-2.52997-5.509-3.79495-9.27328-3.79495Z"/>
  <path class="cls-2" d="m461.20622,85.15507h.00001v5.42066c2.02447-2.22569,4.27346-3.8882,6.74699-4.98755,2.47353-1.09812,5.17159-1.64779,8.09418-1.64779,2.94959,0,5.61084.7239,7.98376,2.16925,2.37169,1.44535,4.28083,3.5557,5.7274,6.32983,1.88091-2.77413,4.18758-4.88448,6.92122-6.32983,2.73364-1.44535,5.72126-2.16925,8.96164-2.16925,3.35448,0,6.30529.78157,8.85244,2.34225,2.54469,1.56068,4.3753,3.59864,5.48937,6.11389s1.66988,6.60589,1.66988,12.27194v15.74054c0,6.58583-5.33887,11.92471-11.92471,11.92471h-.00001v-23.93655c0-5.34704-.66501-8.96777-1.99379-10.86218-1.33001-1.89318-3.32503-2.84039-5.98383-2.84039-2.02447,0-3.8379.57912-5.44275,1.73491-1.60485,1.15701-2.79622,2.75327-3.57778,4.79124-.78034,2.03796-1.17051,5.31269-1.17051,9.82173v9.36654c0,6.58583-5.33887,11.92471-11.92471,11.92471h-.00001v-22.85193c0-4.2207-.31165-7.27826-.93371-9.17144-.62329-1.89318-1.55823-3.30295-2.80358-4.22807-1.24658-.92512-2.75327-1.38768-4.52131-1.38768-1.97048,0-3.75937.58525-5.3679,1.75699-1.60853,1.17051-2.81094,2.81094-3.60723,4.92129s-1.19505,5.43538-1.19505,9.97387v9.14814c0,6.5384-5.30042,11.83882-11.83882,11.83882h-.00001v-35.33983c0-6.5384,5.30042-11.83882,11.83882-11.83882Z"/>
  <path class="cls-1" d="m161.00492,66.94224h.00001c6.53806,0,11.83821,5.30015,11.83821,11.83821v41.71507c0,6.53806-5.30015,11.83821-11.83821,11.83821h-.00001v-4.98632c-2.31035,2.19747-4.62744,3.78023-6.95128,4.74829-2.32446.96806-4.844,1.45271-7.55801,1.45271-6.09242,0-11.36216-2.36433-15.80924-7.09054-4.44646-4.72621-6.6697-10.60207-6.6697-17.62635,0-7.28562,2.15146-13.25473,6.45375-17.90978,4.3023-4.65382,9.52849-6.98134,15.67918-6.98134,2.82934,0,5.48508.53618,7.96842,1.60485,2.48334,1.0699,4.77835,2.67475,6.88687,4.81332v-23.41632Zm-12.44433,27.92659c-3.65938,0-6.69853,1.2932-9.11869,3.88084-2.42016,2.58764-3.63054,5.90408-3.63054,9.95178,0,4.07592,1.23124,7.42918,3.69496,10.05976,2.4631,2.63058,5.49551,3.94587,9.09721,3.94587,3.71704,0,6.79975-1.2932,9.24813-3.88084,2.44899-2.58641,3.6741-5.97647,3.6741-10.16895,0-4.10414-1.22511-7.42918-3.6741-9.97264-2.44838-2.54347-5.5452-3.81581-9.29107-3.81581Z"/>
  <path class="cls-1" d="m219.631,85.15507h.00001c6.53806,0,11.83821,5.30015,11.83821,11.83821v23.50223c0,6.53806-5.30015,11.83821-11.83821,11.83821h-.00001v-4.98632c-2.31035,2.19747-4.62744,3.78023-6.95128,4.74829-2.32446.96806-4.844,1.45271-7.55801,1.45271-6.09242,0-11.36216-2.36433-15.80924-7.09054-4.44646-4.72621-6.6697-10.60207-6.6697-17.62635,0-7.28562,2.15146-13.25473,6.45375-17.90978,4.3023-4.65382,9.52849-6.98134,15.67918-6.98134,2.82934,0,5.48508.53618,7.96842,1.60485,2.48334,1.0699,4.77835,2.67475,6.88687,4.81332v-5.20349Zm-12.44433,9.71376c-3.65938,0-6.69853,1.2932-9.11869,3.88084-2.42016,2.58764-3.63054,5.90408-3.63054,9.95178,0,4.07592,1.23124,7.42918,3.69496,10.05976,2.4631,2.63058,5.49551,3.94587,9.09721,3.94587,3.71704,0,6.79975-1.2932,9.24813-3.88084,2.44899-2.58641,3.6741-5.97647,3.6741-10.16895,0-4.10414-1.22511-7.42918-3.6741-9.97264-2.44838-2.54347-5.5452-3.81581-9.29107-3.81581Z"/>
  <path class="cls-1" d="m249.79983,85.15507h.00001l9.48677,26.84197,8.21199-21.5943c1.20143-3.15928,4.22991-5.24767,7.60992-5.24767h1.47316l10.02356,26.53768,7.56636-21.13969c1.15879-3.23756,4.22671-5.39799,7.6654-5.39799h5.92942l-17.21532,47.17865h-.18268c-4.40177,0-8.34124-2.73209-9.88391-6.85468l-7.49534-20.03023-10.36343,26.88491h0c-4.44915,0-8.4204-2.79033-9.9285-6.97608l-10.55704-29.30124c-1.91169-5.30592,2.01982-10.90132,7.65962-10.90132Z"/>
  <path class="cls-2" d="m313.16501,66.94224h.00001c6.53806,0,11.83821,5.30015,11.83821,11.83821v53.55327h-.00001c-6.53806,0-11.83821-5.30015-11.83821-11.83821v-53.55327Z"/>
  <g>
    <path class="cls-2" d="m84.21234,68.89296c-3.45667-1.41803-7.16356-2.11396-11.15214-2.14687h0c.00004,3.96812,3.21684,7.18489,7.18496,7.18489h12.14689c-2.57927-2.17785-5.29953-3.85438-8.17971-5.03802Z"/>
    <path class="cls-1" d="m92.81565,78.39336h-19.75545v.22297c0,3.96814,3.21681,7.18496,7.18496,7.18496h21.37087c-.59814-1.29795-1.3078-2.56617-2.12288-3.80824-1.47426-2.24658-3.99039-3.59968-6.6775-3.59968Z"/>
    <path class="cls-1" d="m98.03344,116.93105c1.8876-2.6376,3.32919-5.34511,4.34727-8.14162.00746-.0205.0149-.04101.02232-.06152,1.10037-3.04311-1.26126-6.2408-4.49721-6.2408h-.75186v15.56415c.28878-.37407.60909-.7432.87948-1.12021Z"/>
    <path class="cls-2" d="m48.96637,80.58645l.00005,21.98948,2.53112.00003c2.69342.00003,4.87689-2.18341,4.87689-4.87683l-.00005-26.44645c-1.56061.92648-3.08949,2.00394-4.58843,3.22927-1.81871,1.48672-2.81957,3.75546-2.81957,6.10451Z"/>
    <path class="cls-1" d="m73.44457,91.05229h0c4.14115,0,7.49821,3.35706,7.49821,7.49821v26.42194c0,4.14115-3.35706,7.49821-7.49821,7.49821h0v-3.15829c-1.46335,1.39185-2.93098,2.39436-4.40288,3.00752-1.47229.61316-3.06814.92013-4.78717.92013-3.85888,0-7.19669-1.49755-10.01343-4.49108-2.81635-2.99354-4.22452-6.71525-4.22452-11.16437,0-4.61465,1.36271-8.39542,4.08775-11.34389,2.72504-2.94769,6.03526-4.42192,9.93105-4.42192,1.79208,0,3.4742.33961,5.04712,1.0165,1.57293.67766,3.02656,1.69416,4.36208,3.04871v-14.83168Zm-7.88212,17.68844c-2.31781,0-4.24279.8191-5.77569,2.45809-1.53291,1.63898-2.29955,3.73959-2.29955,6.30337,0,2.58165.77986,4.70557,2.34035,6.37176,1.5601,1.66618,3.4808,2.49928,5.76209,2.49928,2.35434,0,4.3069-.8191,5.85768-2.45809,1.55117-1.63821,2.32714-3.78544,2.32714-6.44092,0-2.59953-.77597-4.70557-2.32714-6.31658-1.55078-1.61101-3.51228-2.4169-5.88488-2.4169Z"/>
    <path class="cls-2" d="m85.28365,128.79889c1.56672-.93976,3.10349-2.03008,4.61173-3.26888,1.80247-1.48046,2.79634-3.73225,2.79633-6.06477l-.00005-12.23865c0-2.61754-2.12195-4.73948-4.73949-4.73948h-2.66845l-.00008,26.31177Z"/>
    <path class="cls-1" d="m68.59782,88.03252v-21.00004c-.33856.0426-.6755.09059-1.01084.14395-3.89061.6191-6.7503,3.98862-6.7503,7.92817v22.9202h2.8843c2.6934,0,4.87683-2.18343,4.87683-4.87683v-5.11546Z"/>
    <path class="cls-2" d="m96.30392,90.26367l-13.71389-.03769v.57618c0,3.96814,3.21681,7.18496,7.18496,7.18496l14.49317.03769c-.00008-.02699-.0002-.05396-.00036-.08092-.02457-4.28862-3.67518-7.68022-7.96387-7.68022Z"/>
  </g>
</svg>